<mxfile host="app.diagrams.net" modified="2021-05-03T13:06:05.663Z" agent="5.0 (Windows NT 10.0; Win64; x64) AppleWebKit/537.36 (KHTML, like Gecko) Chrome/90.0.4430.93 Safari/537.36" etag="5hslfErqqVYXb_R2jlsS" version="14.6.9" type="github">
  <diagram id="J-BuqRJsVDPUa-QOa330" name="Page-1">
    <mxGraphModel dx="3846" dy="1963" grid="1" gridSize="10" guides="1" tooltips="1" connect="1" arrows="1" fold="1" page="1" pageScale="1" pageWidth="850" pageHeight="1100" math="0" shadow="0">
      <root>
        <mxCell id="0" />
        <mxCell id="1" parent="0" />
        <mxCell id="E-UYi22_1TdeJzSSU1xt-143" value="" style="rounded=1;whiteSpace=wrap;html=1;" vertex="1" parent="1">
          <mxGeometry x="-720" y="-90" width="1260" height="670" as="geometry" />
        </mxCell>
        <mxCell id="E-UYi22_1TdeJzSSU1xt-113" style="edgeStyle=none;rounded=0;orthogonalLoop=1;jettySize=auto;html=1;entryX=0.5;entryY=0;entryDx=0;entryDy=0;" edge="1" parent="1" source="E-UYi22_1TdeJzSSU1xt-2" target="E-UYi22_1TdeJzSSU1xt-110">
          <mxGeometry relative="1" as="geometry">
            <Array as="points">
              <mxPoint x="-420" y="130" />
              <mxPoint x="-455" y="200" />
            </Array>
          </mxGeometry>
        </mxCell>
        <mxCell id="E-UYi22_1TdeJzSSU1xt-2" value="Fleet Service" style="rounded=0;whiteSpace=wrap;html=1;" vertex="1" parent="1">
          <mxGeometry x="-425" y="-10" width="120" height="60" as="geometry" />
        </mxCell>
        <mxCell id="E-UYi22_1TdeJzSSU1xt-117" style="edgeStyle=none;rounded=0;orthogonalLoop=1;jettySize=auto;html=1;entryX=1;entryY=0.5;entryDx=0;entryDy=0;entryPerimeter=0;" edge="1" parent="1" source="E-UYi22_1TdeJzSSU1xt-3" target="E-UYi22_1TdeJzSSU1xt-104">
          <mxGeometry relative="1" as="geometry">
            <Array as="points">
              <mxPoint x="-220" y="250" />
            </Array>
          </mxGeometry>
        </mxCell>
        <mxCell id="E-UYi22_1TdeJzSSU1xt-3" value="Monitor Service" style="rounded=0;whiteSpace=wrap;html=1;" vertex="1" parent="1">
          <mxGeometry x="-110" y="-10" width="117.5" height="100" as="geometry" />
        </mxCell>
        <mxCell id="E-UYi22_1TdeJzSSU1xt-19" value="" style="edgeStyle=orthogonalEdgeStyle;rounded=0;orthogonalLoop=1;jettySize=auto;html=1;" edge="1" parent="1" source="E-UYi22_1TdeJzSSU1xt-4" target="E-UYi22_1TdeJzSSU1xt-17">
          <mxGeometry relative="1" as="geometry" />
        </mxCell>
        <mxCell id="E-UYi22_1TdeJzSSU1xt-24" value="" style="edgeStyle=orthogonalEdgeStyle;rounded=0;orthogonalLoop=1;jettySize=auto;html=1;entryX=0;entryY=0.5;entryDx=0;entryDy=0;entryPerimeter=0;" edge="1" parent="1" source="E-UYi22_1TdeJzSSU1xt-4" target="E-UYi22_1TdeJzSSU1xt-5">
          <mxGeometry relative="1" as="geometry">
            <mxPoint x="-51.19999999999982" y="135" as="targetPoint" />
            <Array as="points">
              <mxPoint x="40" y="435" />
              <mxPoint x="40" y="250" />
            </Array>
          </mxGeometry>
        </mxCell>
        <mxCell id="E-UYi22_1TdeJzSSU1xt-4" value="Data Manager Service" style="rounded=0;whiteSpace=wrap;html=1;" vertex="1" parent="1">
          <mxGeometry x="-110" y="400" width="117.5" height="70" as="geometry" />
        </mxCell>
        <mxCell id="E-UYi22_1TdeJzSSU1xt-80" style="edgeStyle=none;rounded=0;orthogonalLoop=1;jettySize=auto;html=1;entryX=1;entryY=0.5;entryDx=0;entryDy=0;entryPerimeter=0;" edge="1" parent="1" source="E-UYi22_1TdeJzSSU1xt-5" target="E-UYi22_1TdeJzSSU1xt-12">
          <mxGeometry relative="1" as="geometry">
            <Array as="points">
              <mxPoint x="430" y="250" />
              <mxPoint x="430" y="345" />
            </Array>
          </mxGeometry>
        </mxCell>
        <mxCell id="E-UYi22_1TdeJzSSU1xt-5" value="SQL DB Write Replica" style="shape=cylinder3;whiteSpace=wrap;html=1;boundedLbl=1;backgroundOutline=1;size=15;" vertex="1" parent="1">
          <mxGeometry x="320" y="210" width="60" height="80" as="geometry" />
        </mxCell>
        <mxCell id="E-UYi22_1TdeJzSSU1xt-82" value="" style="edgeStyle=none;rounded=0;orthogonalLoop=1;jettySize=auto;html=1;exitX=1;exitY=0.5;exitDx=0;exitDy=0;exitPerimeter=0;" edge="1" parent="1" source="E-UYi22_1TdeJzSSU1xt-5" target="E-UYi22_1TdeJzSSU1xt-14">
          <mxGeometry relative="1" as="geometry">
            <Array as="points">
              <mxPoint x="430" y="250" />
              <mxPoint x="430" y="460" />
            </Array>
          </mxGeometry>
        </mxCell>
        <mxCell id="E-UYi22_1TdeJzSSU1xt-12" value="SQL DB Read Replica 1" style="shape=cylinder3;whiteSpace=wrap;html=1;boundedLbl=1;backgroundOutline=1;size=15;" vertex="1" parent="1">
          <mxGeometry x="320" y="300" width="60" height="90" as="geometry" />
        </mxCell>
        <mxCell id="E-UYi22_1TdeJzSSU1xt-14" value="SQL DB Read Replica N" style="shape=cylinder3;whiteSpace=wrap;html=1;boundedLbl=1;backgroundOutline=1;size=15;" vertex="1" parent="1">
          <mxGeometry x="320" y="420" width="60" height="80" as="geometry" />
        </mxCell>
        <mxCell id="E-UYi22_1TdeJzSSU1xt-20" value="" style="edgeStyle=orthogonalEdgeStyle;rounded=0;orthogonalLoop=1;jettySize=auto;html=1;entryX=0;entryY=0.5;entryDx=0;entryDy=0;entryPerimeter=0;" edge="1" parent="1" source="E-UYi22_1TdeJzSSU1xt-17" target="E-UYi22_1TdeJzSSU1xt-12">
          <mxGeometry relative="1" as="geometry" />
        </mxCell>
        <mxCell id="E-UYi22_1TdeJzSSU1xt-21" style="edgeStyle=orthogonalEdgeStyle;rounded=0;orthogonalLoop=1;jettySize=auto;html=1;entryX=0;entryY=0.5;entryDx=0;entryDy=0;entryPerimeter=0;" edge="1" parent="1" source="E-UYi22_1TdeJzSSU1xt-17" target="E-UYi22_1TdeJzSSU1xt-14">
          <mxGeometry relative="1" as="geometry" />
        </mxCell>
        <mxCell id="E-UYi22_1TdeJzSSU1xt-17" value="Load &lt;br&gt;Balancer" style="rhombus;whiteSpace=wrap;html=1;" vertex="1" parent="1">
          <mxGeometry x="100" y="390" width="90" height="90" as="geometry" />
        </mxCell>
        <mxCell id="E-UYi22_1TdeJzSSU1xt-22" value="Read" style="text;html=1;strokeColor=none;fillColor=none;align=center;verticalAlign=middle;whiteSpace=wrap;rounded=0;" vertex="1" parent="1">
          <mxGeometry x="50" y="440" width="40" height="20" as="geometry" />
        </mxCell>
        <mxCell id="E-UYi22_1TdeJzSSU1xt-28" value="Web Service&amp;nbsp;" style="ellipse;shape=cloud;whiteSpace=wrap;html=1;" vertex="1" parent="1">
          <mxGeometry x="-1140" y="-40" width="190" height="120" as="geometry" />
        </mxCell>
        <mxCell id="E-UYi22_1TdeJzSSU1xt-33" value="" style="endArrow=classic;startArrow=classic;html=1;entryX=0;entryY=0.5;entryDx=0;entryDy=0;exitX=0.875;exitY=0.5;exitDx=0;exitDy=0;exitPerimeter=0;" edge="1" parent="1" source="E-UYi22_1TdeJzSSU1xt-28" target="E-UYi22_1TdeJzSSU1xt-2">
          <mxGeometry width="50" height="50" relative="1" as="geometry">
            <mxPoint x="-560" y="40" as="sourcePoint" />
            <mxPoint x="-510" y="-10" as="targetPoint" />
          </mxGeometry>
        </mxCell>
        <mxCell id="E-UYi22_1TdeJzSSU1xt-35" value="Request" style="text;html=1;strokeColor=none;fillColor=none;align=center;verticalAlign=middle;whiteSpace=wrap;rounded=0;" vertex="1" parent="1">
          <mxGeometry x="-560" width="40" height="20" as="geometry" />
        </mxCell>
        <mxCell id="E-UYi22_1TdeJzSSU1xt-36" value="Response" style="text;html=1;strokeColor=none;fillColor=none;align=center;verticalAlign=middle;whiteSpace=wrap;rounded=0;" vertex="1" parent="1">
          <mxGeometry x="-510" y="20" width="40" height="20" as="geometry" />
        </mxCell>
        <mxCell id="E-UYi22_1TdeJzSSU1xt-41" value="" style="endArrow=classic;startArrow=classic;html=1;exitX=0.5;exitY=1;exitDx=0;exitDy=0;entryX=0;entryY=0.5;entryDx=0;entryDy=0;" edge="1" parent="1" source="E-UYi22_1TdeJzSSU1xt-2" target="E-UYi22_1TdeJzSSU1xt-4">
          <mxGeometry width="50" height="50" relative="1" as="geometry">
            <mxPoint x="-305" y="250" as="sourcePoint" />
            <mxPoint x="-310" y="130" as="targetPoint" />
            <Array as="points">
              <mxPoint x="-365" y="435" />
            </Array>
          </mxGeometry>
        </mxCell>
        <mxCell id="E-UYi22_1TdeJzSSU1xt-42" value="Private Api" style="text;html=1;strokeColor=none;fillColor=none;align=center;verticalAlign=middle;whiteSpace=wrap;rounded=0;" vertex="1" parent="1">
          <mxGeometry x="-370" y="100" width="80" height="20" as="geometry" />
        </mxCell>
        <mxCell id="E-UYi22_1TdeJzSSU1xt-44" value="Request" style="text;html=1;strokeColor=none;fillColor=none;align=center;verticalAlign=middle;whiteSpace=wrap;rounded=0;" vertex="1" parent="1">
          <mxGeometry x="-340" y="440" width="40" height="20" as="geometry" />
        </mxCell>
        <mxCell id="E-UYi22_1TdeJzSSU1xt-45" value="Response" style="text;html=1;strokeColor=none;fillColor=none;align=center;verticalAlign=middle;whiteSpace=wrap;rounded=0;" vertex="1" parent="1">
          <mxGeometry x="-280" y="410" width="40" height="20" as="geometry" />
        </mxCell>
        <mxCell id="E-UYi22_1TdeJzSSU1xt-47" value="Write" style="text;html=1;strokeColor=none;fillColor=none;align=center;verticalAlign=middle;whiteSpace=wrap;rounded=0;" vertex="1" parent="1">
          <mxGeometry x="100" y="220" width="40" height="20" as="geometry" />
        </mxCell>
        <mxCell id="E-UYi22_1TdeJzSSU1xt-48" value="" style="endArrow=classic;startArrow=classic;html=1;entryX=0.5;entryY=1;entryDx=0;entryDy=0;exitX=0.5;exitY=0;exitDx=0;exitDy=0;" edge="1" parent="1" source="E-UYi22_1TdeJzSSU1xt-4" target="E-UYi22_1TdeJzSSU1xt-3">
          <mxGeometry width="50" height="50" relative="1" as="geometry">
            <mxPoint x="-60" y="210" as="sourcePoint" />
            <mxPoint x="-10" y="160" as="targetPoint" />
            <Array as="points">
              <mxPoint x="-52" y="210" />
            </Array>
          </mxGeometry>
        </mxCell>
        <mxCell id="E-UYi22_1TdeJzSSU1xt-49" value="Private Api" style="text;html=1;strokeColor=none;fillColor=none;align=center;verticalAlign=middle;whiteSpace=wrap;rounded=0;" vertex="1" parent="1">
          <mxGeometry x="-50" y="90" width="70" height="20" as="geometry" />
        </mxCell>
        <mxCell id="E-UYi22_1TdeJzSSU1xt-50" value="Request" style="text;html=1;strokeColor=none;fillColor=none;align=center;verticalAlign=middle;whiteSpace=wrap;rounded=0;" vertex="1" parent="1">
          <mxGeometry x="-100" y="230" width="40" height="20" as="geometry" />
        </mxCell>
        <mxCell id="E-UYi22_1TdeJzSSU1xt-51" value="Response" style="text;html=1;strokeColor=none;fillColor=none;align=center;verticalAlign=middle;whiteSpace=wrap;rounded=0;" vertex="1" parent="1">
          <mxGeometry x="-40" y="350" width="40" height="20" as="geometry" />
        </mxCell>
        <mxCell id="E-UYi22_1TdeJzSSU1xt-83" value="Replicate" style="text;html=1;strokeColor=none;fillColor=none;align=center;verticalAlign=middle;whiteSpace=wrap;rounded=0;" vertex="1" parent="1">
          <mxGeometry x="440" y="360" width="40" height="20" as="geometry" />
        </mxCell>
        <mxCell id="E-UYi22_1TdeJzSSU1xt-116" style="edgeStyle=none;rounded=0;orthogonalLoop=1;jettySize=auto;html=1;entryX=0;entryY=0;entryDx=0;entryDy=52.5;entryPerimeter=0;exitX=0;exitY=0.5;exitDx=0;exitDy=0;exitPerimeter=0;" edge="1" parent="1" source="E-UYi22_1TdeJzSSU1xt-104" target="E-UYi22_1TdeJzSSU1xt-107">
          <mxGeometry relative="1" as="geometry">
            <Array as="points">
              <mxPoint x="-680" y="250" />
              <mxPoint x="-680" y="473" />
            </Array>
          </mxGeometry>
        </mxCell>
        <mxCell id="E-UYi22_1TdeJzSSU1xt-104" value="NoSQL DB Write Replica" style="shape=cylinder3;whiteSpace=wrap;html=1;boundedLbl=1;backgroundOutline=1;size=15;" vertex="1" parent="1">
          <mxGeometry x="-630" y="210" width="60" height="80" as="geometry" />
        </mxCell>
        <mxCell id="E-UYi22_1TdeJzSSU1xt-106" value="NoSQL DB Read Replica 1" style="shape=cylinder3;whiteSpace=wrap;html=1;boundedLbl=1;backgroundOutline=1;size=15;" vertex="1" parent="1">
          <mxGeometry x="-630" y="300" width="60" height="90" as="geometry" />
        </mxCell>
        <mxCell id="E-UYi22_1TdeJzSSU1xt-107" value="NoSQL DB Read Replica N" style="shape=cylinder3;whiteSpace=wrap;html=1;boundedLbl=1;backgroundOutline=1;size=15;" vertex="1" parent="1">
          <mxGeometry x="-630" y="420" width="60" height="80" as="geometry" />
        </mxCell>
        <mxCell id="E-UYi22_1TdeJzSSU1xt-108" value="" style="edgeStyle=orthogonalEdgeStyle;rounded=0;orthogonalLoop=1;jettySize=auto;html=1;exitX=0;exitY=0.5;exitDx=0;exitDy=0;" edge="1" source="E-UYi22_1TdeJzSSU1xt-110" parent="1">
          <mxGeometry relative="1" as="geometry">
            <mxPoint x="-570" y="345" as="targetPoint" />
            <Array as="points">
              <mxPoint x="-530" y="420" />
              <mxPoint x="-530" y="345" />
            </Array>
          </mxGeometry>
        </mxCell>
        <mxCell id="E-UYi22_1TdeJzSSU1xt-109" style="edgeStyle=orthogonalEdgeStyle;rounded=0;orthogonalLoop=1;jettySize=auto;html=1;exitX=0;exitY=0.5;exitDx=0;exitDy=0;" edge="1" source="E-UYi22_1TdeJzSSU1xt-110" parent="1">
          <mxGeometry relative="1" as="geometry">
            <mxPoint x="-570" y="460" as="targetPoint" />
            <Array as="points">
              <mxPoint x="-530" y="420" />
              <mxPoint x="-530" y="460" />
            </Array>
          </mxGeometry>
        </mxCell>
        <mxCell id="E-UYi22_1TdeJzSSU1xt-110" value="Load &lt;br&gt;Balancer" style="rhombus;whiteSpace=wrap;html=1;" vertex="1" parent="1">
          <mxGeometry x="-500" y="375" width="90" height="90" as="geometry" />
        </mxCell>
        <mxCell id="E-UYi22_1TdeJzSSU1xt-111" value="Replicate" style="text;html=1;strokeColor=none;fillColor=none;align=center;verticalAlign=middle;whiteSpace=wrap;rounded=0;" vertex="1" parent="1">
          <mxGeometry x="-740" y="290" width="60" height="20" as="geometry" />
        </mxCell>
        <mxCell id="E-UYi22_1TdeJzSSU1xt-112" style="edgeStyle=none;rounded=0;orthogonalLoop=1;jettySize=auto;html=1;entryX=0;entryY=0.5;entryDx=0;entryDy=0;entryPerimeter=0;exitX=0;exitY=0.5;exitDx=0;exitDy=0;exitPerimeter=0;" edge="1" parent="1" source="E-UYi22_1TdeJzSSU1xt-104" target="E-UYi22_1TdeJzSSU1xt-106">
          <mxGeometry relative="1" as="geometry">
            <Array as="points">
              <mxPoint x="-680" y="250" />
              <mxPoint x="-680" y="300" />
              <mxPoint x="-680" y="345" />
            </Array>
            <mxPoint x="-620" y="250" as="sourcePoint" />
            <mxPoint x="-570" y="345" as="targetPoint" />
          </mxGeometry>
        </mxCell>
        <mxCell id="E-UYi22_1TdeJzSSU1xt-114" value="Read" style="text;html=1;strokeColor=none;fillColor=none;align=center;verticalAlign=middle;whiteSpace=wrap;rounded=0;" vertex="1" parent="1">
          <mxGeometry x="-500" y="310" width="40" height="20" as="geometry" />
        </mxCell>
        <mxCell id="E-UYi22_1TdeJzSSU1xt-118" value="Write" style="text;html=1;strokeColor=none;fillColor=none;align=center;verticalAlign=middle;whiteSpace=wrap;rounded=0;" vertex="1" parent="1">
          <mxGeometry x="-300" y="230" width="40" height="20" as="geometry" />
        </mxCell>
        <mxCell id="E-UYi22_1TdeJzSSU1xt-138" style="edgeStyle=none;rounded=0;orthogonalLoop=1;jettySize=auto;html=1;entryX=0.995;entryY=0.554;entryDx=0;entryDy=0;entryPerimeter=0;" edge="1" parent="1" source="E-UYi22_1TdeJzSSU1xt-128" target="E-UYi22_1TdeJzSSU1xt-129">
          <mxGeometry relative="1" as="geometry" />
        </mxCell>
        <mxCell id="E-UYi22_1TdeJzSSU1xt-128" value="Publisher" style="rounded=0;whiteSpace=wrap;html=1;" vertex="1" parent="1">
          <mxGeometry x="580" y="20" width="120" height="60" as="geometry" />
        </mxCell>
        <mxCell id="E-UYi22_1TdeJzSSU1xt-139" style="edgeStyle=none;rounded=0;orthogonalLoop=1;jettySize=auto;html=1;entryX=1;entryY=0.5;entryDx=0;entryDy=0;" edge="1" parent="1" source="E-UYi22_1TdeJzSSU1xt-129" target="E-UYi22_1TdeJzSSU1xt-3">
          <mxGeometry relative="1" as="geometry" />
        </mxCell>
        <mxCell id="E-UYi22_1TdeJzSSU1xt-129" value="" style="rounded=0;whiteSpace=wrap;html=1;" vertex="1" parent="1">
          <mxGeometry x="170" y="-50" width="290" height="180" as="geometry" />
        </mxCell>
        <mxCell id="E-UYi22_1TdeJzSSU1xt-130" value="Message Queue&amp;nbsp;" style="text;html=1;strokeColor=none;fillColor=none;align=center;verticalAlign=middle;whiteSpace=wrap;rounded=0;" vertex="1" parent="1">
          <mxGeometry x="235" y="140" width="160" height="20" as="geometry" />
        </mxCell>
        <mxCell id="E-UYi22_1TdeJzSSU1xt-131" value="Exchange" style="ellipse;whiteSpace=wrap;html=1;aspect=fixed;" vertex="1" parent="1">
          <mxGeometry x="370" width="80" height="80" as="geometry" />
        </mxCell>
        <mxCell id="E-UYi22_1TdeJzSSU1xt-132" value="" style="ellipse;whiteSpace=wrap;html=1;aspect=fixed;" vertex="1" parent="1">
          <mxGeometry x="190" y="-40" width="30" height="30" as="geometry" />
        </mxCell>
        <mxCell id="E-UYi22_1TdeJzSSU1xt-133" value="" style="ellipse;whiteSpace=wrap;html=1;aspect=fixed;" vertex="1" parent="1">
          <mxGeometry x="190" y="85" width="30" height="30" as="geometry" />
        </mxCell>
        <mxCell id="E-UYi22_1TdeJzSSU1xt-134" value="" style="ellipse;whiteSpace=wrap;html=1;aspect=fixed;" vertex="1" parent="1">
          <mxGeometry x="190" y="40" width="30" height="30" as="geometry" />
        </mxCell>
        <mxCell id="E-UYi22_1TdeJzSSU1xt-135" value="" style="ellipse;whiteSpace=wrap;html=1;aspect=fixed;" vertex="1" parent="1">
          <mxGeometry x="190" width="30" height="30" as="geometry" />
        </mxCell>
        <mxCell id="E-UYi22_1TdeJzSSU1xt-137" value="Create Topics" style="shape=singleArrow;direction=west;whiteSpace=wrap;html=1;" vertex="1" parent="1">
          <mxGeometry x="240" y="5" width="120" height="70" as="geometry" />
        </mxCell>
        <mxCell id="E-UYi22_1TdeJzSSU1xt-141" value="Topic 1" style="text;html=1;strokeColor=none;fillColor=none;align=center;verticalAlign=middle;whiteSpace=wrap;rounded=0;" vertex="1" parent="1">
          <mxGeometry x="220" y="-35" width="60" height="20" as="geometry" />
        </mxCell>
        <mxCell id="E-UYi22_1TdeJzSSU1xt-142" value="Topic n" style="text;html=1;strokeColor=none;fillColor=none;align=center;verticalAlign=middle;whiteSpace=wrap;rounded=0;" vertex="1" parent="1">
          <mxGeometry x="220" y="90" width="60" height="20" as="geometry" />
        </mxCell>
        <mxCell id="E-UYi22_1TdeJzSSU1xt-144" value="Publish" style="text;html=1;strokeColor=none;fillColor=none;align=center;verticalAlign=middle;whiteSpace=wrap;rounded=0;" vertex="1" parent="1">
          <mxGeometry x="480" y="20" width="40" height="20" as="geometry" />
        </mxCell>
        <mxCell id="E-UYi22_1TdeJzSSU1xt-145" value="Consume" style="text;html=1;strokeColor=none;fillColor=none;align=center;verticalAlign=middle;whiteSpace=wrap;rounded=0;" vertex="1" parent="1">
          <mxGeometry x="80" y="10" width="40" height="30" as="geometry" />
        </mxCell>
        <mxCell id="E-UYi22_1TdeJzSSU1xt-222" value="" style="points=[[0,0,0],[0.25,0,0],[0.5,0,0],[0.75,0,0],[1,0,0],[0,1,0],[0.25,1,0],[0.5,1,0],[0.75,1,0],[1,1,0],[0,0.25,0],[0,0.5,0],[0,0.75,0],[1,0.25,0],[1,0.5,0],[1,0.75,0]];outlineConnect=0;fontColor=#232F3E;gradientColor=#F34482;gradientDirection=north;fillColor=#BC1356;strokeColor=#ffffff;dashed=0;verticalLabelPosition=bottom;verticalAlign=top;align=center;html=1;fontSize=12;fontStyle=0;aspect=fixed;shape=mxgraph.aws4.resourceIcon;resIcon=mxgraph.aws4.api_gateway;" vertex="1" parent="1">
          <mxGeometry x="-870" y="-14" width="78" height="78" as="geometry" />
        </mxCell>
      </root>
    </mxGraphModel>
  </diagram>
</mxfile>
